<?xml version="1.0" encoding="utf-8"?>
<!-- Generator: Adobe Illustrator 24.0.2, SVG Export Plug-In . SVG Version: 6.00 Build 0)  -->
<svg version="1.1" id="layer" xmlns="http://www.w3.org/2000/svg" xmlns:xlink="http://www.w3.org/1999/xlink" x="0px" y="0px"
	 viewBox="0 0 786.9 425.5" style="enable-background:new 0 0 786.9 425.5;" xml:space="preserve">
<style type="text/css">
	.st0{fill:#FFFFFF;}
	.st1{fill:#00AEEF;}
	.st2{fill:#0B9444;}
	.st3{fill:#231F20;}
	.st4{fill:none;}
</style>
<g>
	<path class="st0" d="M740.2,425.5H46.7C20.9,425.5,0,404.6,0,378.8V53.1C0,27.3,20.9,6.4,46.7,6.4h693.5
		c25.8,0,46.7,20.9,46.7,46.7v325.8C786.9,404.6,766,425.5,740.2,425.5z"/>
	<g>
		<g>
			<path class="st1" d="M341.5,145.4l-33.1,19.3l-5.3-28.1l32-25.9L341.5,145.4z M404.8,106.6l-32,18.3l-7.4-42.5l32-25.9
				L404.8,106.6z M446.5,143.2l-34.3,11.7l-7.4-48.1l32.7-17.9L446.5,143.2z"/>
			<path class="st1" d="M489.6,193.1l-35.7,3.3l-7.8-55.7l34.5-8.2L489.6,193.1z M421.2,201.3l-34.5,6.8l-6.6-41.7l33.3-14
				L421.2,201.3z"/>
			<path class="st1" d="M463.5,250.8l-35.7-1l-7.2-48.9l34.5-5.8L463.5,250.8z M380.2,166.8L347.3,180l-6-35.1l32.2-20.5
				L380.2,166.8z M353.9,215.5l-34.3,6.2l-5.8-28.1l33.7-13.1L353.9,215.5z"/>
			<path class="st1" d="M394.3,250.4h-34.7l-6.2-35.5l33.9-6.6L394.3,250.4z M325.5,250l-35.3-1.6l-5.1-22.2l34.3-5.1L325.5,250z
				 M314.7,193.7l-33.5,11.9l-5.7-23.4l32.9-17.3L314.7,193.7z"/>
			<path class="st1" d="M285.9,227.2l-34.7,2.1l-4.3-16.8l34.1-7.2L285.9,227.2z"/>
		</g>
		<path class="st2" d="M218.5,271.4h7.7v15.3h0.2c0.8-1.3,1.6-2.6,2.4-3.8l7.8-11.5h9.6l-11.4,14.7l12,19.8h-9.1l-8.5-14.9l-3,3.6
			v11.3h-7.7L218.5,271.4z M297.8,291.3h-12.7v8.2h14.2v6.4h-22v-34.5h21.3v6.4h-13.5v7.2h12.7V291.3z M331.9,271.8
			c2.5-0.4,6.3-0.7,10.4-0.7c5.1,0,8.7,0.8,11.2,2.7c2.1,1.6,3.2,4,3.2,7.2c0,4.4-3.1,7.4-6.1,8.5v0.2c2.4,1,3.7,3.3,4.6,6.5
			c1.1,3.9,2.1,8.4,2.8,9.7h-8c-0.6-1-1.4-3.8-2.4-8c-0.9-4.3-2.4-5.5-5.6-5.5h-2.4v13.6h-7.7V271.8z M339.7,286.7h3.1
			c3.9,0,6.2-1.9,6.2-5c0-3.2-2.2-4.8-5.7-4.8c-1.9,0-3,0.2-3.5,0.3V286.7z M398.1,297l-2.5,8.9h-8.1l10.6-34.5h10.2l10.7,34.5h-8.4
			L408,297H398.1z M406.9,291.2l-2.1-7.3c-0.6-2.1-1.2-4.6-1.7-6.7h-0.1c-0.5,2-1,4.7-1.6,6.7l-2.1,7.3H406.9z M451,271.4h7.8v28
			h13.7v6.6H451L451,271.4z M512.8,297l-2.5,8.9h-8.1l10.6-34.5H523l10.7,34.5h-8.4l-2.7-8.9H512.8z M521.6,291.2l-2.1-7.3
			c-0.6-2.1-1.2-4.6-1.7-6.7h-0.1c-0.5,2-1,4.7-1.6,6.7l-2.1,7.3H521.6z"/>
		<path class="st3" d="M112,364.3c2.7,1.4,6.9,2.8,11.2,2.8c4.7,0,7.1-1.9,7.1-4.9c0-2.8-2.1-4.4-7.5-6.3
			c-7.4-2.6-12.3-6.7-12.3-13.2c0-7.6,6.4-13.5,16.9-13.5c5.1,0,8.8,1.1,11.4,2.3l-2.3,8.2c-2.9-1.4-6.1-2.1-9.4-2.1
			c-4.4,0-6.5,2-6.5,4.3c0,2.9,2.5,4.1,8.3,6.3c7.9,2.9,11.6,7,11.6,13.4c0,7.5-5.8,13.9-18.1,13.9c-5.1,0-10.2-1.3-12.7-2.7
			L112,364.3z M155.5,338.4h-12v-8.5h34.4v8.5h-12.2v36.3h-10.2V338.4z M188.2,363.2l-3.2,11.5h-10.5l13.7-44.8h13.3l13.9,44.8
			h-10.9l-3.5-11.5H188.2z M199.5,355.6l-2.8-9.5c-0.8-2.7-1.6-6-2.3-8.6h-0.1c-0.7,2.7-1.3,6-2.1,8.6l-2.7,9.5H199.5z M220.6,330.5
			c3.3-0.5,8.1-0.9,13.5-0.9c6.6,0,11.3,1,14.5,3.5c2.7,2.1,4.1,5.2,4.1,9.4c0,5.7-4.1,9.6-7.9,11v0.2c3.1,1.3,4.9,4.3,6,8.4
			c1.4,5.1,2.8,10.9,3.7,12.6h-10.4c-0.7-1.3-1.8-4.9-3.1-10.4c-1.2-5.6-3.1-7.1-7.2-7.2h-3.1v17.6h-10L220.6,330.5z M230.6,349.8h4
			c5.1,0,8-2.5,8-6.4c0-4.1-2.8-6.2-7.4-6.3c-2.5,0-3.9,0.2-4.6,0.3L230.6,349.8z M267.9,338.4h-12v-8.5h34.4v8.5h-12.2v36.3h-10.2
			V338.4z M305,329.9v25.8c0,7.7,2.9,11.6,8.1,11.6c5.3,0,8.2-3.7,8.2-11.6v-25.8h10.1V355c0,13.8-7,20.4-18.7,20.4
			c-11.3,0-17.9-6.3-17.9-20.5v-25L305,329.9z M339.5,330.5c3.1-0.5,7.5-0.9,13.7-0.9c6.2,0,10.7,1.2,13.7,3.6
			c2.9,2.3,4.8,6,4.8,10.4c0,4.4-1.5,8.1-4.1,10.6c-3.5,3.3-8.6,4.7-14.6,4.7c-1.3,0-2.5-0.1-3.5-0.2v16h-10L339.5,330.5z
			 M349.6,350.8c0.9,0.2,1.9,0.3,3.4,0.3c5.4,0,8.7-2.7,8.7-7.3c0-4.1-2.9-6.6-7.9-6.6c-2.1,0-3.5,0.2-4.2,0.4V350.8z M428,357.6
			c-0.2-6.1-0.4-12.3-0.4-18.4h-0.2c-1.4,5.8-3.1,11.6-5,17.4l-5.4,17.5H409l-4.8-17.3c-1.6-5.8-3-11.6-4.1-17.5h-0.1
			c-0.3,6-0.5,13-0.8,18.5l-0.8,17h-9.4l2.9-44.8h13.5l4.4,15c1.4,5.2,2.8,10.8,3.8,16h0.2c1.3-5.2,2.8-11.1,4.3-16.1l4.8-14.9h13.2
			l2.5,44.8h-9.9L428,357.6z M455.7,329.9v44.8h-10.2v-44.8H455.7z M464.1,364.3c2.7,1.4,6.9,2.8,11.2,2.8c4.7,0,7.1-1.9,7.1-4.9
			c0-2.8-2.1-4.4-7.5-6.3c-7.4-2.6-12.3-6.7-12.3-13.2c0-7.6,6.4-13.5,16.9-13.5c5.1,0,8.8,1.1,11.4,2.3l-2.3,8.2
			c-2.9-1.4-6.1-2.1-9.4-2.1c-4.4,0-6.5,2-6.5,4.3c0,2.9,2.5,4.1,8.3,6.3c7.9,2.9,11.6,7,11.6,13.4c0,7.5-5.8,13.9-18.1,13.9
			c-5.1,0-10.2-1.3-12.7-2.7L464.1,364.3z M499.2,364.3c2.7,1.4,6.9,2.8,11.2,2.8c4.6,0,7.1-1.9,7.1-4.9c0-2.8-2.1-4.4-7.5-6.3
			c-7.4-2.6-12.3-6.7-12.3-13.2c0-7.6,6.4-13.5,17-13.5c5.1,0,8.8,1.1,11.4,2.3l-2.3,8.2c-1.8-0.9-5-2.1-9.4-2.1s-6.5,2-6.5,4.3
			c0,2.9,2.5,4.1,8.3,6.3c7.9,2.9,11.6,7,11.6,13.4c0,7.5-5.8,13.9-18.1,13.9c-5.1,0-10.2-1.3-12.7-2.7L499.2,364.3z M544.2,329.9
			v44.8h-10.2v-44.8H544.2z M593.3,351.8c0,14.7-8.9,23.6-22,23.6c-13.3,0-21.1-10-21.1-22.8c0-13.4,8.6-23.5,21.8-23.5
			C585.8,329.2,593.3,339.5,593.3,351.8z M560.9,352.4c0,8.8,4.1,15,10.9,15c6.9,0,10.8-6.5,10.8-15.2c0-8-3.9-15-10.8-15
			C564.9,337.2,560.9,343.7,560.9,352.4L560.9,352.4z M599.2,374.7v-44.8H611l9.3,16.4c2.8,5,5.2,10.1,7.3,15.4h0.2
			c-0.7-5.9-0.9-12-0.9-18.7v-13.1h9.3v44.8h-10.6l-9.6-17.3c-2.7-4.8-5.6-10.6-7.8-15.8l-0.2,0.1c0.3,5.9,0.4,12.2,0.4,19.5v13.5
			H599.2z"/>
		<circle class="st4" cx="661.7" cy="344.4" r="15.2"/>
		<path d="M656.1,352.7v-15.2h6.7c1.4,0,2.4,0.1,3.1,0.4c0.7,0.3,1.3,0.8,1.7,1.4c0.4,0.7,0.6,1.5,0.6,2.3c0,1.1-0.4,2-1,2.7
			s-1.8,1.2-3.2,1.4c0.5,0.3,0.9,0.5,1.2,0.8c0.6,0.5,1.1,1.2,1.7,2l2.6,4.1H667l-2-3.2c-0.6-0.9-1.1-1.6-1.4-2.1
			c-0.4-0.5-0.7-0.8-1-1c-0.3-0.2-0.6-0.3-0.9-0.4c-0.4-0.1-0.7-0.1-1.1-0.1h-2.3v6.7L656.1,352.7L656.1,352.7z M658.2,344.2h4.3
			c0.9,0,1.6-0.1,2.2-0.3c0.5-0.2,0.9-0.5,1.2-0.9c0.3-0.4,0.4-0.9,0.4-1.4c0-0.7-0.3-1.3-0.8-1.8c-0.5-0.5-1.3-0.7-2.5-0.7h-4.8
			V344.2z"/>
	</g>
</g>
</svg>
