<?xml version="1.0" encoding="utf-8"?>
<!-- Generator: Adobe Illustrator 24.0.2, SVG Export Plug-In . SVG Version: 6.00 Build 0)  -->
<svg version="1.1" id="layer" xmlns="http://www.w3.org/2000/svg" xmlns:xlink="http://www.w3.org/1999/xlink" x="0px" y="0px"
	 viewBox="0 0 1016.9 425.5" style="enable-background:new 0 0 1016.9 425.5;" xml:space="preserve">
<style type="text/css">
	.st0{fill:#FFFFFF;}
	.st1{fill-rule:evenodd;clip-rule:evenodd;fill:#F89522;}
	.st2{fill-rule:evenodd;clip-rule:evenodd;fill:#A4CD39;}
	.st3{fill-rule:evenodd;clip-rule:evenodd;fill:#3DC5F2;}
	.st4{fill:#A4CD39;}
	.st5{fill:#F89522;}
</style>
<g>
	<path class="st0" d="M961.6,422.3H61.8c-25.8,0-46.7-20.9-46.7-46.7V49.9C15.1,24.1,36,3.2,61.8,3.2h899.8
		c25.8,0,46.7,20.9,46.7,46.7v325.8C1008.2,401.4,987.3,422.3,961.6,422.3z"/>
	<g>
		<path class="st1" d="M226.1,155.7c-7.8-6.8-15.6-8.7-25.9-8.7c-12.1,0-28.2,5.4-28.2,20.9c0,15.2,15.1,19.7,27.6,20.7
			c9.4,0.6,13.2,2.4,13.2,7c0,4.9-5.8,8.2-12.1,8c-7.5-0.1-18.3-4.1-23-9.3l-8.2,11.8c9.7,10.1,20.3,12,30.9,12
			c19,0,28.8-10.1,28.8-22c0-17.8-15.9-20.6-28.6-21.4c-8.6-0.6-12.4-3-12.4-7.3c0-4.2,4.4-6.6,12.1-6.6c6.3,0,11.8,1.6,16.5,5.9
			L226.1,155.7z"/>
		<path class="st1" d="M247.7,131.7v17.2h-12.4v14.2h12.4v28.9c0,16.6,9.4,24.9,24,24.4c5.1-0.1,8.9-1,13.7-2.8l-4.7-14.1
			c-2.4,1.3-5.4,2-8,2c-5.2,0-8.6-3.1-8.6-9.4v-28.9h18.6v-14.2h-18.5v-19L247.7,131.7z"/>
		<path class="st1" d="M325.2,162c25.9,0,25.9,40.5,0,40.5c-11,0-19.7-7.6-19.7-20.3C305.3,169.4,314.2,162,325.2,162 M344.9,158.1
			c-3.8-6.6-12.3-10.9-21.3-10.9c-19.5-0.1-34.8,12-34.8,35c0,23.4,14.7,35.7,34.4,35.5c7.5-0.1,17.9-3.9,21.7-11.8l0.8,9.7h15.6
			v-66.8h-15.8L344.9,158.1z"/>
		<path class="st1" d="M371.9,148.8v66.8h16.5v-35.2c0-12.3,8-16.9,16.6-16.9c5.4,0,8.6,1.6,12,4.4l7.5-14.4
			c-3.7-3.7-10.3-6.3-17.2-6.3c-6.8,0-13.7,1.3-18.9,9.4l-1.3-7.8H371.9z"/>
		<path class="st1" d="M444.7,131.7v17.2h-12.4v14.2h12.4v28.9c0,16.6,9.4,24.9,24,24.4c5.1-0.1,8.9-1,13.7-2.8l-4.7-14.1
			c-2.4,1.3-5.4,2-8,2c-5.2,0-8.6-3.1-8.6-9.4v-28.9h18.6v-14.2h-18.5v-19L444.7,131.7z"/>
		<path class="st1" d="M491.9,148.8v35.1c0,20.7,11.7,32.8,27.6,32.8c9.3,0,15.6-3.2,22.7-10l1.1,8.9h14.8v-66.8h-16.3v34.1
			c0,10.3-6.9,18.7-17.1,18.7c-10.6,0-16.1-7.8-16.1-17.9v-35L491.9,148.8L491.9,148.8z"/>
		<path class="st1" d="M584.3,243.5v-35.8c4.8,7.3,15.2,9.4,22.3,9.4c21.4,0,33.7-15.5,33.7-35c0-19.6-13.7-35-34.2-35
			c-7.6,0-16.5,3.2-21.7,10.7l-1.1-9.2h-15.5v94.7L584.3,243.5L584.3,243.5z M604.7,201.2c-11.3,0-19-8.5-19-19c0-10.4,7-19,19-19
			c12,0,19,8.6,19,19C623.6,192.8,615.8,201.2,604.7,201.2"/>
		<path class="st1" d="M647.7,130c0,12.8,19.5,12.8,19.5,0C667.3,117.2,647.7,117.2,647.7,130 M665.7,215.6h-16.5v-67.1h16.5V215.6z
			"/>
		<path class="st1" d="M742,215.6v-35.1c0-21-12.5-32.8-28.3-32.8c-8.5,0-15.2,3.4-22,10l-1.1-9h-14.8v66.9h16.3v-34.1
			c0-10.1,6.9-18.7,17.1-18.7c10.6,0,16.1,7.8,16.1,17.9v35L742,215.6L742,215.6z"/>
		<path class="st1" d="M806.4,120.9v36.9c-3.9-6.9-14.9-10.7-22-10.7c-19.5,0-34,12-34,35c0,22,14.8,35,34.4,35
			c8.2,0,16.3-2.7,21.6-10.7l1.1,9.2H823v-94.7h-16.6V120.9z M786,162.6c10.4,0,19.3,7.9,19.3,19.5c0,12-8.9,19.6-19.3,19.6
			c-10.6,0-19-8-19-19.6C767.1,170.1,775.4,162.6,786,162.6"/>
		<path class="st2" d="M835.2,130c0,12.8,19.5,12.8,19.5,0C854.6,117.2,835.2,117.2,835.2,130"/>
		<rect x="836.7" y="148.5" class="st3" width="16.5" height="67.1"/>
		<path class="st1" d="M898.3,162c25.9,0,25.9,40.5,0,40.5c-11,0-19.7-7.6-19.7-20.3C878.6,169.4,887.4,162,898.3,162 M918.2,158.1
			c-3.8-6.6-12.3-10.9-21.3-10.9c-19.5-0.1-34.8,12-34.8,35c0,23.4,14.7,35.7,34.4,35.5c7.5-0.1,17.9-3.9,21.7-11.8l0.8,9.7h15.5
			v-66.8h-15.8L918.2,158.1z"/>
		<rect x="774.4" y="225.9" class="st4" width="78.9" height="16.2"/>
		<rect x="774.1" y="226" class="st4" width="16.1" height="79.1"/>
		<rect x="711.5" y="288.9" class="st4" width="78.6" height="16.2"/>
		<path class="st5" d="M128.2,137.7l-4.2,16.8h12.3l4.2-16.8h14.9l-4.1,16.9h8v13H148l-5.2,20.4h8.9v13.1h-11.8l-3.7,15.2H121
			l3.7-15.2h-12.4l-3.7,15.2H93.6l3.7-15.2h-8.5V188h11.8l5.2-20.6h-9.3v-12.8H109l4.1-16.8h15.1V137.7z M120.1,166.5l-5.6,22.3
			h14.1l5.6-22.3H120.1z"/>
	</g>
</g>
</svg>
